<svg width="175" height="175" viewBox="0 0 175 175" fill="none" xmlns="http://www.w3.org/2000/svg">
<path d="M27.5533 0.142998C26.6257 0.519066 26.6105 0.603989 26.6105 5.10471C26.6105 7.33687 26.5801 9.1687 26.5345 9.1687C26.4889 9.1687 23.9647 8.25885 20.9387 7.1549C15.1452 5.03192 14.7346 4.92274 13.9135 5.35947C13.1228 5.77193 13.0772 6.01456 13.0772 10.4425C13.0772 12.6747 13.0316 14.5065 12.9859 14.5065C12.9251 14.5065 10.5074 13.6815 7.60301 12.6868C4.50098 11.6192 2.11364 10.8671 1.82472 10.8671C1.14045 10.8671 0.532211 11.1582 0.243296 11.6435C0.015206 12.0196 0 15.3314 0 52.7444C0 91.2249 0.015206 93.445 0.273708 93.8453C0.577829 94.3306 0.973185 94.5004 9.27567 97.6909C12.0736 98.7706 15.8143 100.202 17.563 100.881C24.8618 103.708 29.6974 105.564 31.5525 106.28C32.6473 106.705 34.7001 107.493 36.1143 108.039C37.5437 108.585 39.6573 109.41 40.8282 109.859C41.999 110.308 45.1163 111.509 47.7469 112.528C50.3775 113.547 53.4948 114.748 54.6656 115.196C55.8365 115.645 57.7829 116.397 58.9994 116.871C60.2158 117.332 63.5308 118.617 66.3743 119.709C87.4194 127.837 87.1153 127.728 87.7083 127.655C88.0124 127.619 90.7647 126.624 93.8211 125.447C100.314 122.936 111.734 118.533 114.577 117.441C115.672 117.016 117.786 116.203 119.291 115.621C120.797 115.039 123.062 114.165 124.309 113.68C125.571 113.195 130.665 111.229 135.638 109.313C140.61 107.396 146.738 105.03 149.247 104.06C151.756 103.102 155.01 101.84 156.47 101.282C157.93 100.712 159.754 100.008 160.5 99.729C167.646 97.0116 174.261 94.3912 174.565 94.1365L174.945 93.8453L174.991 52.9264C175.021 22.4646 174.976 11.9346 174.854 11.6799C174.611 11.2189 173.942 10.8671 173.288 10.8671C172.908 10.8671 171.083 11.4373 167.601 12.6383C164.788 13.6209 162.355 14.4458 162.218 14.4701C161.959 14.5307 161.944 14.276 161.944 10.3697C161.944 6.45129 161.929 6.17226 161.64 5.80833C161.275 5.33521 160.834 5.12897 160.135 5.1411C159.754 5.1411 157.854 5.77193 154.113 7.1549L148.639 9.15657L148.563 5.06831C148.487 1.04072 148.487 0.967926 148.137 0.591858C147.635 0.0216827 146.829 -0.123894 145.871 0.17939C145.476 0.300705 141.614 1.7322 137.31 3.34566C130.757 5.80833 125.389 7.80999 118.987 10.1999C118.409 10.4182 114.577 11.8497 110.472 13.3904C93.2889 19.8321 87.6931 21.9066 87.5259 21.9066C87.4346 21.9066 85.4274 21.1908 83.1009 20.3174C80.7592 19.4439 76.684 17.9154 74.0533 16.9327C64.7016 13.4389 57.0378 10.5759 52.1567 8.7441C47.017 6.81522 45.466 6.23292 37.6349 3.30927C35.0499 2.33877 32.0391 1.21056 30.9443 0.798088C28.6938 -0.0511017 28.2528 -0.136024 27.5533 0.142998ZM39.1555 7.08212C44.3712 9.03526 52.5368 12.0802 61.3563 15.3799C78.6151 21.8217 83.1465 23.5443 83.0553 23.6171C82.9488 23.6899 76.4255 26.1525 74.7072 26.7712L73.7492 27.1109L68.6248 25.2306C65.7964 24.1873 55.9886 20.6085 46.8345 17.2603L30.184 11.1704L30.1383 7.59163C30.1231 5.62635 30.1383 3.95223 30.1687 3.86731C30.2144 3.77026 30.8986 3.97649 32.2672 4.48601C33.3772 4.91061 36.4792 6.07521 39.1555 7.08212ZM144.883 7.49458L144.837 11.1704L144.077 11.4615C143.666 11.6192 139.652 13.0871 135.182 14.7127C130.711 16.3504 126.666 17.8183 126.21 17.9882C125.45 18.2672 120.28 20.1597 110.776 23.6292C108.769 24.3692 106.792 25.0971 106.366 25.2427C105.956 25.4004 105.134 25.6916 104.541 25.9099C103.964 26.1283 102.975 26.4801 102.382 26.7106L101.272 27.1109L97.3642 25.643C95.2049 24.8424 93.0608 24.0538 92.6047 23.884L91.7683 23.5686L92.3005 23.3745C92.5895 23.2774 93.882 22.7922 95.1745 22.3069C96.4518 21.8217 97.5162 21.4213 97.5466 21.4213C97.5618 21.4213 98.4742 21.0938 99.5386 20.6813C102.58 19.5288 125.389 11.0005 128.871 9.71461C129.297 9.5569 132.992 8.17393 137.082 6.63326C141.188 5.09258 144.624 3.83092 144.731 3.83092C144.883 3.83092 144.913 4.60732 144.883 7.49458ZM158.295 12.6504L158.279 16.5081L153.17 18.2672C150.357 19.2377 148 20.0384 147.939 20.0626C147.863 20.0869 147.803 18.4249 147.803 16.3626V12.6261L153.018 10.7215C155.877 9.67822 158.234 8.81689 158.264 8.81689C158.279 8.80476 158.295 10.5395 158.295 12.6504ZM22.1552 10.77L27.2188 12.6261V16.3504V20.0869L26.8842 19.9777C26.6866 19.917 25.1964 19.4075 23.5693 18.8374C21.9423 18.2672 19.7526 17.515 18.7034 17.1511L16.8027 16.496L16.757 12.711C16.7266 9.73887 16.757 8.92607 16.9091 8.92607C17.0155 8.92607 19.3725 9.76313 22.1552 10.77ZM36.2664 15.295C37.863 15.8773 39.5661 16.5081 40.0679 16.6901C40.5697 16.8721 42.1055 17.4301 43.4892 17.9396C44.873 18.437 46.5456 19.0557 47.2147 19.2983C47.8838 19.5531 50.3471 20.4508 52.6889 21.3C55.0306 22.1492 57.3267 22.9863 57.7829 23.1561C59.8357 23.9204 68.6552 27.1352 69.8412 27.5598C70.5711 27.8145 71.1033 28.0693 71.0425 28.1057C70.9817 28.1542 68.9441 28.9306 66.5111 29.8405L62.071 31.5025L57.4636 29.9011C54.9241 29.0277 49.7237 27.2322 45.9222 25.9221C42.1207 24.5997 36.8594 22.7922 34.2592 21.8945L29.4997 20.2689V16.5445V12.8202L31.4461 13.5238C32.5105 13.912 34.6849 14.7127 36.2664 15.295ZM145.628 16.5809L145.598 20.2325L139.287 22.4161C135.82 23.605 132.049 24.9152 130.924 25.3034C129.799 25.6916 125.298 27.2444 120.918 28.7486L112.966 31.4903L109.058 30.0224C106.914 29.2218 104.891 28.4696 104.587 28.3726C104.268 28.2755 104.009 28.1421 104.009 28.0936C104.009 28.0086 104.785 27.7175 110.928 25.4853C112.525 24.903 114.258 24.2601 114.805 24.066C115.353 23.8597 121.922 21.4699 129.403 18.7282C136.885 15.9986 143.56 13.5481 144.229 13.2934C144.898 13.0507 145.491 12.8688 145.552 12.893C145.613 12.9173 145.643 14.5793 145.628 16.5809ZM8.88032 16.2655L13.8223 17.9639L13.8375 53.3388V88.7138L14.1568 89.0413C14.3241 89.2111 14.5217 89.3567 14.5826 89.3567C14.6586 89.3567 18.0952 90.5941 22.216 92.0984C26.352 93.6148 31.7198 95.568 34.1375 96.4535C36.5705 97.3391 40.9802 98.9526 43.9454 100.032C46.9106 101.112 51.3355 102.725 53.7533 103.611C56.1862 104.497 58.604 105.382 59.1514 105.588C59.6988 105.783 61.3411 106.389 62.8009 106.923C64.2606 107.457 67.3475 108.573 69.6588 109.422C71.9549 110.259 73.9925 110.95 74.175 110.95C74.3574 110.95 77.201 109.895 80.5007 108.597L86.507 106.244L87.6171 106.268L88.7271 106.292L94.6423 108.621C97.8964 109.907 100.709 110.95 100.892 110.95C101.074 110.95 104.268 109.834 107.978 108.476C111.688 107.117 118.318 104.703 122.713 103.102C127.107 101.5 131.106 100.032 131.608 99.8503C132.11 99.6683 134.512 98.7949 136.93 97.9093C139.363 97.0237 143.423 95.5316 145.978 94.6096C148.532 93.6755 152.836 92.1105 155.558 91.1158C158.279 90.1331 160.652 89.2111 160.834 89.0777L161.184 88.8351L161.214 53.3995L161.26 17.976L166.278 16.2413C169.03 15.2829 171.311 14.5065 171.326 14.5065C171.357 14.5065 171.372 32.012 171.372 53.4116V92.3289L165.928 94.4155C160.834 96.3808 146.769 101.803 141.872 103.696C140.656 104.169 138.983 104.812 138.147 105.127C137.31 105.443 134.923 106.365 132.84 107.178C130.757 107.978 129.038 108.646 129.008 108.646C128.993 108.646 126.803 109.495 124.157 110.526C121.496 111.557 119.306 112.406 119.291 112.406C119.276 112.406 117.755 112.989 115.931 113.692C111.293 115.488 104.192 118.229 99.5994 119.988C97.4706 120.813 93.882 122.196 91.6315 123.058L87.5563 124.635L86.4614 124.234C85.8684 124.016 82.9488 122.9 79.9837 121.747C77.0185 120.595 73.7036 119.321 72.6087 118.896C69.7044 117.78 47.7469 109.313 33.5293 103.817C28.4353 101.852 23.5085 99.9595 22.5809 99.6077C21.6686 99.2559 19.2052 98.3096 17.122 97.4968C15.0388 96.684 13.3205 96.0289 13.3053 96.0289C13.2749 96.0289 11.1612 95.204 8.5914 94.2092C6.02158 93.2023 3.86233 92.3895 3.7863 92.3895C3.71027 92.3895 3.64944 75.988 3.64944 53.4359C3.64944 30.811 3.71027 14.5065 3.7863 14.5307C3.86233 14.5429 6.14323 15.3314 8.88032 16.2655ZM21.3645 19.9534L26.5345 21.7367L26.6105 52.7929C26.6562 69.8617 26.7474 83.9219 26.8082 84.0311C27.0211 84.3707 26.6105 84.213 43.8694 90.5092C47.2147 91.7345 50.3319 92.8627 50.7881 93.0325C52.4608 93.6391 68.2446 99.4015 76.0301 102.24C80.4246 103.842 84.0437 105.176 84.0741 105.2C84.1805 105.285 74.175 109.143 73.9925 109.094C73.9013 109.058 70.9513 107.99 67.4387 106.705C63.9261 105.419 59.486 103.805 57.5548 103.102C54.1791 101.864 50.1038 100.384 47.7469 99.5106C47.1235 99.2801 43.9758 98.1398 40.7521 96.9631C37.5285 95.7863 30.6553 93.2751 25.4701 91.3826L16.0424 87.9374L15.9967 53.0477C15.9815 33.8438 16.0119 18.1459 16.0728 18.158C16.1488 18.158 18.5209 18.9708 21.3645 19.9534ZM159.025 53.0477L158.979 87.9495L142.845 93.8453C133.98 97.0844 126.149 99.9352 125.434 100.202C124.735 100.457 121.8 101.524 118.911 102.58C116.022 103.635 110.791 105.54 107.278 106.826L100.892 109.155L98.0028 108.003C96.4214 107.372 94.2013 106.51 93.1065 106.098C91.9964 105.673 91.0841 105.285 91.0841 105.249C91.0841 105.2 95.3113 103.611 100.481 101.731C105.636 99.8382 110.381 98.1155 111.004 97.8729C112.312 97.3998 118.501 95.1312 126.286 92.3046C129.221 91.2371 131.912 90.2423 132.292 90.1089C132.673 89.9633 136.261 88.6531 140.276 87.1852C144.29 85.7295 147.757 84.395 147.97 84.2252C148.183 84.0553 148.411 83.7399 148.472 83.5337C148.517 83.3153 148.563 69.3158 148.563 52.429V21.7125L150.053 21.2151C150.859 20.9361 153.17 20.1354 155.177 19.4318C157.185 18.7403 158.872 18.158 158.949 18.158C159.009 18.1459 159.04 33.8559 159.025 53.0477ZM35.3388 25.4125C38.015 26.3345 45.0554 28.7729 50.9706 30.811C56.9009 32.849 61.9037 34.5232 62.1166 34.5232C62.4967 34.5232 63.4699 34.1713 71.4075 31.1992L75.5283 29.6585L76.6535 30.0588C86.8112 33.771 86.355 33.5891 86.279 33.9166C86.2181 34.1956 83.481 49.4447 83.481 49.5296C83.481 49.5539 81.5803 49.566 79.2386 49.566C75.1634 49.566 74.9961 49.5781 74.6007 49.8208C74.2662 50.027 74.1902 50.1604 74.2358 50.5244C74.2814 50.9368 74.5095 51.1188 78.235 53.6057C81.261 55.6195 82.1885 56.311 82.1885 56.5172C82.1733 56.6628 81.1545 62.4737 79.9076 69.425L77.6267 82.0779H75.878C73.81 82.0779 73.4451 82.1992 73.4451 82.8786C73.4451 83.3153 73.7796 83.6065 76.3798 85.4868L76.9425 85.8993L75.8932 91.8436C75.3002 95.107 74.7832 97.9578 74.7376 98.1762L74.6464 98.5644L73.4755 98.1398C72.8368 97.8972 70.8296 97.1693 69.0353 96.5142C67.241 95.8591 57.7677 92.4017 47.975 88.8229L30.184 82.3206L30.1383 53.0234C30.1231 31.6966 30.1535 23.7263 30.2752 23.7263C30.3664 23.7263 32.6473 24.4906 35.3388 25.4125ZM144.883 53.0356L144.837 82.3448L140.656 83.8612C138.36 84.7104 128.369 88.3498 118.455 91.9771C108.541 95.5922 100.421 98.5401 100.405 98.528C100.39 98.5159 99.8579 95.665 99.2345 92.1954L98.094 85.8993L99.1889 85.1108C101.607 83.376 101.622 83.3517 101.622 82.9393C101.622 82.2599 101.333 82.1507 99.2649 82.0779L97.4098 82.0173L95.0984 69.1581C93.3345 59.3438 92.8328 56.2746 92.9696 56.1776C93.0608 56.1048 94.7943 54.9644 96.7863 53.6179C98.7935 52.2834 100.527 51.0945 100.649 50.9854C100.953 50.6821 100.892 50.1847 100.527 49.8935C100.208 49.6388 100.071 49.6266 95.874 49.5903C93.1825 49.566 91.5402 49.5053 91.5402 49.4325C91.5402 49.3719 90.9168 45.8781 90.1565 41.6685C89.4114 37.4468 88.8032 33.9045 88.8336 33.771C88.864 33.5891 90.1261 33.0795 94.1861 31.5995L99.5082 29.6585L103.158 31.0172C105.18 31.7693 107.613 32.6792 108.571 33.0431C111.901 34.3048 112.57 34.5232 112.935 34.5232C113.133 34.5232 114.243 34.2077 115.383 33.8074C119.306 32.4608 131.38 28.2877 141.112 24.9273C142.997 24.2722 144.624 23.7384 144.731 23.7384C144.883 23.7263 144.913 29.6221 144.883 53.0356ZM90.1109 26.1404C96.8319 28.6395 96.908 28.6759 96.6191 28.7972C96.0564 29.0277 87.5867 32.0969 87.5107 32.0969C87.4346 32.0969 85.6707 31.4661 82.8728 30.4228C82.1581 30.168 80.8504 29.6828 79.9533 29.3673C79.0409 29.0398 78.311 28.7486 78.311 28.7001C78.311 28.6273 87.1913 25.2184 87.4498 25.1942C87.4954 25.182 88.6967 25.6188 90.1109 26.1404ZM88.423 44.2403C88.8792 46.8001 89.2897 49.0443 89.3354 49.2263L89.4114 49.566H87.5259H85.6555L86.5375 44.6771C87.0241 41.9961 87.4346 39.7275 87.4346 39.6304C87.4498 39.0117 87.6779 40.1278 88.423 44.2403ZM83.1161 51.5919C83.0857 51.7132 82.9641 52.3198 82.8576 52.9385C82.7664 53.5572 82.6295 54.091 82.5687 54.1152C82.5079 54.1395 81.5347 53.5451 80.379 52.7808L78.311 51.3857H80.744C83.0097 51.3857 83.1921 51.3978 83.1161 51.5919ZM89.7155 51.4342C89.7155 51.4585 89.8524 52.1985 90.0196 53.0841C90.1869 53.9697 90.3238 54.7703 90.3238 54.8552C90.3238 54.9887 89.8068 55.0251 87.5107 55.0251C85.9596 55.0251 84.6975 54.9887 84.6975 54.928C84.6975 54.8795 84.8344 54.1274 85.0017 53.266C85.1689 52.3926 85.3058 51.6162 85.3058 51.5313C85.3058 51.4221 85.8532 51.3857 87.5107 51.3857C88.7271 51.3857 89.7155 51.41 89.7155 51.4342ZM96.6951 51.4342C95.3265 52.3926 92.5438 54.1638 92.483 54.1274C92.4374 54.091 92.3005 53.4602 92.1485 52.7201L91.9052 51.3857H94.3382C95.6611 51.3857 96.7255 51.41 96.6951 51.4342ZM92.8936 69.0732C94.0949 75.7939 95.1137 81.4714 95.1593 81.6776L95.2353 82.0779H87.5259H79.8164L79.9076 81.6776C79.9533 81.4714 80.9416 75.9152 82.1125 69.34C83.2834 62.7649 84.287 57.2694 84.3174 57.1117C84.3934 56.8448 84.4086 56.8448 87.5563 56.8448H90.7039L92.8936 69.0732ZM95.5546 84.0432C95.6003 84.2009 95.6611 84.5163 95.7219 84.7711L95.8131 85.2078L91.6923 88.1921C88.0124 90.8853 87.5563 91.1764 87.313 91.0308C87.1609 90.9459 85.2754 89.5993 83.1313 88.0344C79.9685 85.7416 79.2386 85.1472 79.2994 84.9409C79.3298 84.8075 79.4058 84.4799 79.4515 84.2252L79.5427 83.7763H87.5107H95.4938L95.5546 84.0432ZM82.6143 90.0118C84.3478 91.2613 85.762 92.341 85.7315 92.4017C85.6707 92.5473 77.0793 98.2368 77.0033 98.1883C76.9425 98.1277 78.7368 87.8646 78.8584 87.5492C78.9497 87.3429 78.7672 87.2216 82.6143 90.0118ZM97.1361 92.7656C97.6683 95.7135 98.0636 98.1398 98.0332 98.1641C97.9724 98.2247 89.3658 92.5351 89.2897 92.3895C89.2441 92.3046 95.9348 87.4157 96.1021 87.4157C96.1477 87.4157 96.6191 89.8177 97.1361 92.7656ZM92.3005 96.6962C94.8095 98.3582 96.8624 99.7533 96.8624 99.8018C96.8624 99.8867 87.8148 103.186 87.5563 103.186C87.2673 103.186 78.1589 99.8624 78.1894 99.7775C78.2958 99.5834 87.3738 93.6148 87.5411 93.6391C87.6475 93.6512 89.7915 95.022 92.3005 96.6962Z" fill="white"/>
<path d="M98.0484 142.989C95.1441 143.268 92.1181 144.178 90.2173 145.331C88.1797 146.556 86.3854 148.448 85.5491 150.256C84.9712 151.469 84.8344 151.954 85.0473 152.027C85.2297 152.076 92.5742 153.41 92.6959 153.41C92.7263 153.41 92.7567 153.325 92.7567 153.216C92.7567 152.743 93.882 151.19 94.7487 150.438C96.4366 149.006 98.4742 148.315 101.029 148.315C106.016 148.327 109.529 151.154 110.472 155.921L110.578 156.443H104.405H98.2309L98.2613 159.015L98.3069 161.599L104.435 161.635L110.563 161.659L110.457 162.12C110.168 163.418 109.575 164.959 109.012 165.893C107.902 167.713 105.773 169.12 103.477 169.557C102.458 169.739 100.329 169.739 99.2953 169.557C98.1549 169.338 96.4822 168.671 95.6307 168.089C94.3229 167.191 93.2889 165.687 92.8632 164.013C92.6807 163.309 92.6047 163.176 92.3614 163.212C91.7835 163.297 85.0777 164.971 84.9256 165.068C84.4998 165.384 86.4918 169.072 87.906 170.552C90.1261 172.893 93.5778 174.385 97.8507 174.882C99.4778 175.064 103.173 175.028 104.709 174.822C109.803 174.106 113.832 171.74 116.372 167.956C119.58 163.188 119.687 155.666 116.615 150.559C114.197 146.507 110.122 143.984 104.693 143.159C103.173 142.929 99.5994 142.832 98.0484 142.989Z" fill="white"/>
<path d="M42.805 143.353C40.1135 143.632 38.1215 144.312 37.0571 145.318C35.6885 146.604 34.7762 147.951 33.3012 150.862C31.5373 154.356 30.7466 155.557 29.9103 155.97C29.4237 156.2 28.3592 156.479 27.4165 156.613L26.9147 156.686V150.074V143.462H22.9611H19.0075V158.99V174.519H22.9611H26.9147V167.725V160.931H27.4925C28.268 160.931 29.5149 161.235 30.0015 161.538C31.0355 162.193 32.769 164.729 36.0383 170.333L38.4408 174.458L43.0331 174.494L47.6101 174.519L47.5036 174.252C47.2907 173.682 41.33 164.292 40.3872 163.03C38.9274 161.053 37.9086 160.082 36.5553 159.367C35.9166 159.027 35.3388 158.748 35.278 158.748C35.202 158.748 34.9587 158.687 34.7458 158.627C34.3352 158.505 34.3504 158.493 35.4605 157.862C36.8898 157.049 37.6045 156.2 38.6233 154.114C40.3264 150.583 40.5393 150.195 41.0867 149.516C42.0599 148.315 43.4436 147.83 45.9526 147.83H47.2907V145.525V143.22L45.5877 143.232C44.6449 143.244 43.398 143.305 42.805 143.353Z" fill="white"/>
<path d="M54.2855 158.99V174.519L58.163 174.494L62.0558 174.458L62.0406 161.562V148.679H71.3162H80.5919V146.071V143.462H67.4387H54.2855V158.99Z" fill="white"/>
<path d="M123.047 143.608C123.093 143.754 126.697 149.407 128.643 152.379C129.129 153.107 131.243 156.406 133.357 159.706L137.189 165.699L137.006 166.196C136.383 167.871 135.349 169.072 134.147 169.52C133.326 169.824 133.129 169.848 130.65 169.884L128.035 169.933L128.065 172.25L128.111 174.567L128.643 174.664C129.692 174.858 134.041 174.931 135.045 174.773C137.827 174.337 139.637 172.966 142.07 169.484C142.769 168.465 156.348 144.324 156.576 143.669C156.652 143.475 156.424 143.462 152.577 143.487L148.502 143.523L147.833 144.918C147.453 145.682 146.312 148.06 145.293 150.195C141.325 158.457 140.914 159.294 140.823 159.379C140.762 159.427 139.835 157.899 138.755 155.982C137.675 154.065 136.337 151.675 135.775 150.681C135.212 149.674 134.071 147.66 133.235 146.192L131.73 143.523L127.366 143.487C123.899 143.462 123.001 143.487 123.047 143.608Z" fill="white"/>
</svg>
